<svg width="32" height="32" viewBox="0 0 32 32" fill="none" xmlns="http://www.w3.org/2000/svg">
<circle cx="16" cy="16" r="16" fill="#F5F5F5"/>
<path d="M20.7864 8.71955L20.7912 8.72482L20.7961 8.72994L23.251 11.2783C23.3121 11.3473 23.3939 11.4836 23.4618 11.658C23.5311 11.8363 23.5625 11.9945 23.5625 12.0858V19.6563C23.5625 19.7006 23.5437 19.75 23.509 19.7873C23.4769 19.8218 23.4415 19.8358 23.4062 19.8358H19.5232V19.6876H22.7027C23.0959 19.6876 23.4135 19.3699 23.4135 18.9768V12.6018C23.4135 12.2087 23.0959 11.8911 22.7027 11.8911H20.2492V9.27406C20.2492 8.88092 19.9316 8.56331 19.5385 8.56331H15.085C14.8979 8.56331 14.725 8.63573 14.5969 8.74643C14.4674 8.85829 14.3502 9.04073 14.3502 9.27406V10.265C14.3078 10.2606 14.266 10.2571 14.2252 10.2547V8.57056C14.2252 8.48317 14.2943 8.41431 14.3815 8.41431H20.0537C20.1434 8.41431 20.293 8.44481 20.4553 8.51295C20.6196 8.58191 20.7355 8.66366 20.7864 8.71955ZM14.8504 12.4879L14.8576 12.495L17.2776 15.055L17.2775 15.0552L17.2874 15.0651C17.3504 15.1281 17.4299 15.2527 17.494 15.4189C17.5575 15.5834 17.5865 15.7381 17.5865 15.8366V23.4071C17.5865 23.4688 17.5636 23.517 17.5356 23.5471C17.5084 23.5763 17.4797 23.5866 17.4535 23.5866H8.43023C8.33137 23.5866 8.25073 23.5059 8.25073 23.4071V12.3213C8.25073 12.289 8.26629 12.2413 8.30751 12.1991C8.34715 12.1585 8.39196 12.1418 8.43023 12.1418H14.0785C14.1589 12.1418 14.3038 12.1732 14.4736 12.2485C14.6405 12.3224 14.7769 12.4145 14.8504 12.4879ZM22.5646 10.7773L22.545 10.7512L22.5221 10.7279L21.4142 9.59707C21.3709 9.5454 21.3109 9.48805 21.2307 9.44358C21.131 9.38825 20.9683 9.33841 20.7849 9.39953C20.6015 9.46069 20.5011 9.59832 20.4545 9.70275C20.4091 9.80442 20.399 9.90335 20.399 9.97681V11.0313C20.399 11.4244 20.7166 11.7421 21.1097 11.7421H22.0945C22.2097 11.7421 22.5328 11.7074 22.6639 11.3818C22.7793 11.0951 22.6239 10.8561 22.5646 10.7773ZM15.4534 13.3175L15.4465 13.31L15.4393 13.3028C15.3764 13.2398 15.2764 13.1621 15.1371 13.1287C14.9816 13.0914 14.8166 13.1202 14.6818 13.2145C14.4524 13.375 14.4215 13.6309 14.4215 13.7501V14.7813C14.4215 15.0136 14.5375 15.1961 14.6675 15.3086C14.7961 15.42 14.9692 15.4921 15.1562 15.4921H16.117C16.1925 15.4921 16.2824 15.4812 16.3736 15.4453C16.4611 15.4109 16.586 15.338 16.6674 15.1929C16.7585 15.0304 16.7532 14.8517 16.6933 14.7095C16.6518 14.6109 16.5894 14.5391 16.5332 14.4891L15.4534 13.3175ZM9.10973 23.4376H16.7267C16.9139 23.4376 17.0867 23.3651 17.2148 23.2544C17.3443 23.1426 17.4615 22.9601 17.4615 22.7268V16.3518C17.4615 16.1195 17.3455 15.9371 17.2155 15.8245C17.0869 15.7132 16.9138 15.6411 16.7267 15.6411H14.2972V13.0241C14.2972 12.6309 13.9796 12.3133 13.5865 12.3133H9.10973C8.71659 12.3133 8.39898 12.6309 8.39898 13.0241V22.7276C8.39898 23.123 8.71892 23.4376 9.10973 23.4376Z" fill="#777777" stroke="url(#paint0_linear_161_6246)"/>
<defs>
<linearGradient id="paint0_linear_161_6246" x1="7.75073" y1="7.77954" x2="26.1497" y2="10.6711" gradientUnits="userSpaceOnUse">
<stop stop-color="#FEA823"/>
<stop offset="1" stop-color="#EB7F00"/>
</linearGradient>
</defs>
</svg>
