<svg width="17" height="16" viewBox="0 0 17 16" fill="none" xmlns="http://www.w3.org/2000/svg">
<path fill-rule="evenodd" clip-rule="evenodd" d="M15.9942 7.11917C16.4808 7.60667 16.4808 8.39417 15.9942 8.8825L13.5917 11.2917C13.2667 11.6167 12.7333 11.6167 12.4083 11.2917C12.3311 11.2146 12.2698 11.123 12.228 11.0222C12.1862 10.9214 12.1646 10.8133 12.1646 10.7042C12.1646 10.595 12.1862 10.487 12.228 10.3861C12.2698 10.2853 12.3311 10.1938 12.4083 10.1167C12.8336 9.69106 13.3058 9.31505 13.8158 8.99583L14.1383 8.79417L13.9658 8.6225C13.3536 8.76319 12.7274 8.8342 12.0992 8.83417H5.49833C5.27732 8.83417 5.06536 8.74637 4.90908 8.59009C4.7528 8.43381 4.665 8.22185 4.665 8.00083C4.665 7.77982 4.7528 7.56786 4.90908 7.41158C5.06536 7.2553 5.27732 7.1675 5.49833 7.1675H12.0992C12.7274 7.16747 13.3536 7.23848 13.9658 7.37917L14.1383 7.2075L13.8167 7.00667C13.3063 6.68666 12.8338 6.30981 12.4083 5.88333C12.3311 5.80624 12.2698 5.71466 12.228 5.61385C12.1862 5.51304 12.1646 5.40497 12.1646 5.29583C12.1646 5.18669 12.1862 5.07862 12.228 4.97781C12.2698 4.877 12.3311 4.78543 12.4083 4.70833C12.7333 4.38333 13.2667 4.38333 13.5917 4.70833L15.9942 7.11917ZM9.66667 11.3333C9.44565 11.3333 9.23369 11.4211 9.07741 11.5774C8.92113 11.7337 8.83333 11.9457 8.83333 12.1667V13.4167C8.83333 13.5272 8.78944 13.6332 8.7113 13.7113C8.63315 13.7894 8.52717 13.8333 8.41667 13.8333H2.58333C2.47283 13.8333 2.36685 13.7894 2.28871 13.7113C2.21057 13.6332 2.16667 13.5272 2.16667 13.4167V2.58333C2.16667 2.47283 2.21057 2.36685 2.28871 2.28871C2.36685 2.21057 2.47283 2.16667 2.58333 2.16667H8.41667C8.52717 2.16667 8.63315 2.21057 8.7113 2.28871C8.78944 2.36685 8.83333 2.47283 8.83333 2.58333V3.8375C8.83333 4.05851 8.92113 4.27048 9.07741 4.42676C9.23369 4.58304 9.44565 4.67083 9.66667 4.67083C9.88768 4.67083 10.0996 4.58304 10.2559 4.42676C10.4122 4.27048 10.5 4.05851 10.5 3.8375V2.58333C10.5 2.0308 10.2805 1.5009 9.88981 1.11019C9.49911 0.719493 8.9692 0.5 8.41667 0.5H2.58333C2.0308 0.5 1.5009 0.719493 1.11019 1.11019C0.719493 1.5009 0.5 2.0308 0.5 2.58333V13.4167C0.5 13.9692 0.719493 14.4991 1.11019 14.8898C1.5009 15.2805 2.0308 15.5 2.58333 15.5H8.41667C8.9692 15.5 9.49911 15.2805 9.88981 14.8898C10.2805 14.4991 10.5 13.9692 10.5 13.4167V12.1667C10.5 11.9457 10.4122 11.7337 10.2559 11.5774C10.0996 11.4211 9.88768 11.3333 9.66667 11.3333Z" fill="#B92727"/>
</svg>
