<svg width="14" height="14" viewBox="0 0 14 14" fill="none" xmlns="http://www.w3.org/2000/svg">
<path d="M13.7666 7C13.7666 7.11072 13.7638 7.22145 13.7584 7.332C13.753 7.44256 13.7449 7.55312 13.734 7.66317C13.7231 7.77339 13.7096 7.88327 13.6934 7.99281C13.677 8.10235 13.6581 8.21156 13.6365 8.32009C13.6149 8.42879 13.5907 8.53682 13.5637 8.64417C13.5369 8.75152 13.5074 8.85836 13.4751 8.96419C13.4431 9.07019 13.4083 9.17534 13.371 9.27965C13.3337 9.38397 13.2938 9.4871 13.2515 9.58955C13.2091 9.69184 13.1642 9.79294 13.117 9.8932C13.0695 9.99329 13.0197 10.092 12.9676 10.1898C12.9154 10.2875 12.8607 10.3837 12.8039 10.4787C12.747 10.5738 12.6877 10.6673 12.6261 10.7594C12.5647 10.8514 12.5009 10.9419 12.4349 11.0308C12.3689 11.1198 12.3009 11.2071 12.2306 11.2928C12.1603 11.3784 12.088 11.4621 12.0136 11.5443C11.9393 11.6263 11.863 11.7065 11.7847 11.7848C11.7064 11.8631 11.6262 11.9394 11.5442 12.0137C11.462 12.0881 11.3783 12.1604 11.2927 12.2308C11.2069 12.301 11.1197 12.369 11.0307 12.435C10.9418 12.501 10.8513 12.5648 10.7593 12.6262C10.6672 12.6878 10.5737 12.7471 10.4786 12.804C10.3836 12.8608 10.2874 12.9155 10.1897 12.9677C10.0919 13.0198 9.99319 13.0696 9.89309 13.1171C9.79283 13.1643 9.69173 13.2092 9.58944 13.2516C9.48699 13.294 9.38386 13.3338 9.27955 13.3711C9.17524 13.4084 9.07008 13.4432 8.96408 13.4752C8.85825 13.5075 8.75141 13.537 8.64406 13.5638C8.53671 13.5909 8.42868 13.615 8.31998 13.6366C8.21145 13.6582 8.10225 13.6771 7.9927 13.6935C7.88316 13.7097 7.77328 13.7232 7.66306 13.7342C7.55301 13.745 7.44245 13.7531 7.3319 13.7585C7.22134 13.7639 7.11061 13.7667 6.99989 13.7667C6.88916 13.7667 6.77844 13.7639 6.66788 13.7585C6.55733 13.7531 6.44677 13.745 6.33672 13.7342C6.2265 13.7232 6.11662 13.7097 6.00707 13.6935C5.89753 13.6771 5.78832 13.6582 5.67979 13.6366C5.57109 13.615 5.46307 13.5909 5.35572 13.5638C5.24837 13.537 5.14153 13.5075 5.0357 13.4752C4.9297 13.4432 4.82454 13.4084 4.72023 13.3711C4.61592 13.3338 4.51279 13.294 4.41033 13.2516C4.30805 13.2092 4.20694 13.1643 4.10668 13.1171C4.00659 13.0696 3.90785 13.0198 3.81012 12.9677C3.71239 12.9155 3.61618 12.8608 3.52116 12.804C3.42613 12.7471 3.33262 12.6878 3.24046 12.6262C3.14847 12.5648 3.058 12.501 2.96905 12.435C2.8801 12.369 2.79283 12.301 2.70709 12.2308C2.62151 12.1604 2.53779 12.0881 2.45559 12.0137C2.37356 11.9394 2.29339 11.8631 2.21507 11.7848C2.13675 11.7065 2.06046 11.6263 1.98619 11.5443C1.91176 11.4621 1.83952 11.3784 1.76913 11.2928C1.69891 11.2071 1.63089 11.1198 1.5649 11.0308C1.4989 10.9419 1.4351 10.8514 1.37366 10.7594C1.31205 10.6673 1.25281 10.5738 1.19592 10.4787C1.13904 10.3837 1.08436 10.2875 1.0322 10.1898C0.980044 10.092 0.930251 9.99329 0.882822 9.8932C0.835561 9.79294 0.790663 9.69184 0.748297 9.58955C0.705931 9.4871 0.666097 9.38397 0.628795 9.27965C0.591492 9.17534 0.556722 9.07019 0.524652 8.96419C0.492414 8.85836 0.462876 8.75152 0.436038 8.64417C0.409032 8.53682 0.384895 8.42879 0.36329 8.32009C0.341685 8.21156 0.322781 8.10235 0.306409 7.99281C0.290205 7.88327 0.276702 7.77339 0.26573 7.66317C0.254928 7.55312 0.246826 7.44256 0.241425 7.332C0.235855 7.22145 0.233154 7.11072 0.233154 7C0.233154 6.88927 0.235855 6.77855 0.241425 6.66799C0.246826 6.55743 0.254928 6.44688 0.26573 6.33683C0.276702 6.22661 0.290205 6.11673 0.306409 6.00718C0.322781 5.89764 0.341685 5.78843 0.36329 5.6799C0.384895 5.5712 0.409032 5.46318 0.436038 5.35583C0.462876 5.24848 0.492414 5.14163 0.524652 5.0358C0.556722 4.9298 0.591492 4.82465 0.628795 4.72034C0.666097 4.61603 0.705931 4.5129 0.748297 4.41044C0.790663 4.30816 0.835561 4.20705 0.882822 4.10679C0.930251 4.0067 0.980044 3.90796 1.0322 3.81023C1.08436 3.7125 1.13904 3.61629 1.19592 3.52126C1.25281 3.42623 1.31205 3.33273 1.37366 3.24057C1.4351 3.14858 1.4989 3.05811 1.5649 2.96916C1.63089 2.8802 1.69891 2.79294 1.76913 2.7072C1.83952 2.62162 1.91176 2.5379 1.98619 2.4557C2.06046 2.37367 2.13675 2.29349 2.21507 2.21518C2.29339 2.13686 2.37356 2.06057 2.45559 1.9863C2.53779 1.91186 2.62151 1.83962 2.70709 1.76924C2.79283 1.69902 2.8801 1.631 2.96905 1.565C3.058 1.49901 3.14847 1.4352 3.24046 1.37377C3.33262 1.31216 3.42613 1.25291 3.52116 1.19603C3.61618 1.13915 3.71239 1.08446 3.81012 1.03231C3.90785 0.980151 4.00659 0.930358 4.10668 0.882928C4.20694 0.835668 4.30805 0.79077 4.41033 0.748404C4.51279 0.706038 4.61592 0.666204 4.72023 0.628902C4.82454 0.591599 4.9297 0.556829 5.0357 0.524759C5.14153 0.49252 5.24837 0.462982 5.35572 0.436145C5.46307 0.409139 5.57109 0.385002 5.67979 0.363397C5.78832 0.341792 5.89753 0.322888 6.00707 0.306515C6.11662 0.290312 6.2265 0.276809 6.33672 0.265837C6.44677 0.255035 6.55733 0.246933 6.66788 0.241532C6.77844 0.235962 6.88916 0.233261 6.99989 0.233261C7.11061 0.233261 7.22134 0.235962 7.3319 0.241532C7.44245 0.246933 7.55301 0.255035 7.66306 0.265837C7.77328 0.276809 7.88316 0.290312 7.9927 0.306515C8.10225 0.322888 8.21145 0.341792 8.31998 0.363397C8.42868 0.385002 8.53671 0.409139 8.64406 0.436145C8.75141 0.462982 8.85825 0.49252 8.96408 0.524759C9.07008 0.556829 9.17524 0.591599 9.27955 0.628902C9.38386 0.666204 9.48699 0.706038 9.58944 0.748404C9.69173 0.79077 9.79283 0.835668 9.89309 0.882928C9.99319 0.930358 10.0919 0.980151 10.1897 1.03231C10.2874 1.08446 10.3836 1.13915 10.4786 1.19603C10.5737 1.25291 10.6672 1.31216 10.7593 1.37377C10.8513 1.4352 10.9418 1.49901 11.0307 1.565C11.1197 1.631 11.2069 1.69902 11.2927 1.76924C11.3783 1.83962 11.462 1.91186 11.5442 1.9863C11.6262 2.06057 11.7064 2.13686 11.7847 2.21518C11.863 2.29349 11.9393 2.37367 12.0136 2.4557C12.088 2.5379 12.1603 2.62162 12.2306 2.7072C12.3009 2.79294 12.3689 2.8802 12.4349 2.96916C12.5009 3.05811 12.5647 3.14858 12.6261 3.24057C12.6877 3.33273 12.747 3.42623 12.8039 3.52126C12.8607 3.61629 12.9154 3.7125 12.9676 3.81023C13.0197 3.90796 13.0695 4.0067 13.117 4.10679C13.1642 4.20705 13.2091 4.30816 13.2515 4.41044C13.2938 4.5129 13.3337 4.61603 13.371 4.72034C13.4083 4.82465 13.4431 4.9298 13.4751 5.0358C13.5074 5.14163 13.5369 5.24848 13.5637 5.35583C13.5907 5.46318 13.6149 5.5712 13.6365 5.6799C13.6581 5.78843 13.677 5.89764 13.6934 6.00718C13.7096 6.11673 13.7231 6.22661 13.734 6.33683C13.7449 6.44688 13.753 6.55743 13.7584 6.66799C13.7638 6.77855 13.7666 6.88927 13.7666 7Z" fill="#FFEB3B"/>
<path d="M12.8334 7C12.8334 7.09554 12.831 7.1909 12.8263 7.28627C12.8218 7.38163 12.8147 7.47683 12.8054 7.57169C12.7959 7.66672 12.7843 7.76158 12.7703 7.85593C12.7563 7.95028 12.7399 8.04447 12.7213 8.13797C12.7028 8.23165 12.6818 8.32482 12.6585 8.41732C12.6354 8.50998 12.6099 8.60197 12.5823 8.69329C12.5546 8.7846 12.5245 8.87524 12.4925 8.96521C12.4602 9.055 12.426 9.14412 12.3893 9.2324C12.3529 9.32051 12.3142 9.40777 12.2734 9.49402C12.2325 9.58044 12.1897 9.66568 12.1446 9.74974C12.0997 9.83396 12.0526 9.91701 12.0035 9.99887C11.9544 10.0809 11.9034 10.1614 11.8504 10.2407C11.7972 10.3202 11.7424 10.3982 11.6855 10.4749C11.6286 10.5517 11.5699 10.6268 11.5093 10.7007C11.4487 10.7745 11.3864 10.8467 11.3222 10.9174C11.2581 10.9881 11.1924 11.0573 11.1249 11.1249C11.0574 11.1924 10.9882 11.258 10.9175 11.3222C10.8468 11.3863 10.7745 11.4486 10.7008 11.5092C10.6268 11.5698 10.5517 11.6285 10.4749 11.6854C10.3983 11.7423 10.3203 11.7971 10.2408 11.8503C10.1615 11.9033 10.081 11.9543 9.99894 12.0034C9.91708 12.0525 9.83404 12.0996 9.74981 12.1445C9.66576 12.1896 9.58052 12.2324 9.4941 12.2733C9.40785 12.3141 9.32058 12.3528 9.23248 12.3893C9.1442 12.4259 9.05508 12.4601 8.96528 12.4924C8.87532 12.5245 8.78468 12.5545 8.69337 12.5822C8.60205 12.6099 8.51006 12.6353 8.4174 12.6585C8.3249 12.6818 8.23173 12.7027 8.13805 12.7213C8.04454 12.7398 7.95036 12.7562 7.85601 12.7702C7.76165 12.7842 7.66679 12.7959 7.57177 12.8053C7.47691 12.8146 7.38171 12.8217 7.28634 12.8262C7.19098 12.831 7.09561 12.8333 7.00008 12.8333C6.90454 12.8333 6.80918 12.831 6.71381 12.8262C6.61845 12.8217 6.52325 12.8146 6.42839 12.8053C6.33336 12.7959 6.23851 12.7842 6.14415 12.7702C6.0498 12.7562 5.95562 12.7398 5.86211 12.7213C5.76843 12.7027 5.67526 12.6818 5.58276 12.6585C5.4901 12.6353 5.39811 12.6099 5.30679 12.5822C5.21548 12.5545 5.12484 12.5245 5.03487 12.4924C4.94508 12.4601 4.85596 12.4259 4.76768 12.3893C4.67957 12.3528 4.59231 12.3141 4.50606 12.2733C4.41964 12.2324 4.3344 12.1896 4.25035 12.1445C4.16612 12.0996 4.08308 12.0525 4.00121 12.0034C3.91918 11.9543 3.83867 11.9033 3.75917 11.8503C3.67984 11.7971 3.60186 11.7423 3.52523 11.6854C3.44843 11.6285 3.37332 11.5698 3.29939 11.5092C3.22563 11.4486 3.15339 11.3863 3.08267 11.3222C3.01194 11.258 2.94274 11.1924 2.87523 11.1249C2.80771 11.0573 2.74205 10.9881 2.67791 10.9174C2.61377 10.8467 2.55149 10.7745 2.49089 10.7007C2.4303 10.6268 2.37156 10.5517 2.31468 10.4749C2.2578 10.3982 2.20294 10.3202 2.14977 10.2407C2.09677 10.1614 2.0458 10.0809 1.99668 9.99887C1.94756 9.91701 1.90047 9.83396 1.85557 9.74974C1.81051 9.66568 1.76764 9.58044 1.72679 9.49402C1.68594 9.40777 1.64729 9.32051 1.61083 9.2324C1.5742 9.14412 1.53994 9.055 1.5077 8.96521C1.47563 8.87524 1.44559 8.7846 1.41791 8.69329C1.39022 8.60197 1.36474 8.50998 1.34161 8.41732C1.31832 8.32482 1.29739 8.23165 1.27882 8.13797C1.26026 8.04447 1.24388 7.95028 1.22987 7.85593C1.21587 7.76158 1.20422 7.66672 1.19477 7.57169C1.18548 7.47683 1.17839 7.38163 1.17384 7.28627C1.16911 7.1909 1.16675 7.09554 1.16675 7C1.16675 6.90447 1.16911 6.8091 1.17384 6.71374C1.17839 6.61837 1.18548 6.52318 1.19477 6.42832C1.20422 6.33329 1.21587 6.23843 1.22987 6.14408C1.24388 6.04972 1.26026 5.95554 1.27882 5.86203C1.29739 5.76835 1.31832 5.67518 1.34161 5.58269C1.36474 5.49002 1.39022 5.39803 1.41791 5.30672C1.44559 5.2154 1.47563 5.12476 1.5077 5.0348C1.53994 4.945 1.5742 4.85588 1.61083 4.76761C1.64729 4.6795 1.68594 4.59223 1.72679 4.50598C1.76764 4.41956 1.81051 4.33433 1.85557 4.25027C1.90047 4.16604 1.94756 4.083 1.99668 4.00114C2.0458 3.91911 2.09677 3.83859 2.14977 3.75909C2.20294 3.67976 2.2578 3.60178 2.31468 3.52515C2.37156 3.44835 2.4303 3.37324 2.49089 3.29931C2.55149 3.22555 2.61377 3.15331 2.67791 3.08259C2.74205 3.01187 2.80771 2.94266 2.87523 2.87515C2.94274 2.80763 3.01194 2.74197 3.08267 2.67784C3.15339 2.6137 3.22563 2.55141 3.29939 2.49082C3.37332 2.43022 3.44843 2.37148 3.52523 2.3146C3.60186 2.25772 3.67984 2.20286 3.75917 2.1497C3.83867 2.0967 3.91918 2.04572 4.00121 1.9966C4.08308 1.94749 4.16612 1.9004 4.25035 1.8555C4.3344 1.81043 4.41964 1.76756 4.50606 1.72671C4.59231 1.68587 4.67957 1.64721 4.76768 1.61075C4.85596 1.57413 4.94508 1.53986 5.03487 1.50762C5.12484 1.47555 5.21548 1.44551 5.30679 1.41783C5.39811 1.39015 5.4901 1.36466 5.58276 1.34154C5.67526 1.31824 5.76843 1.29731 5.86211 1.27875C5.95562 1.26018 6.0498 1.24381 6.14415 1.2298C6.23851 1.21579 6.33336 1.20414 6.42839 1.19469C6.52325 1.18541 6.61845 1.17832 6.71381 1.17376C6.80918 1.16903 6.90454 1.16667 7.00008 1.16667C7.09561 1.16667 7.19098 1.16903 7.28634 1.17376C7.38171 1.17832 7.47691 1.18541 7.57177 1.19469C7.66679 1.20414 7.76165 1.21579 7.85601 1.2298C7.95036 1.24381 8.04454 1.26018 8.13805 1.27875C8.23173 1.29731 8.3249 1.31824 8.4174 1.34154C8.51006 1.36466 8.60205 1.39015 8.69337 1.41783C8.78468 1.44551 8.87532 1.47555 8.96528 1.50762C9.05508 1.53986 9.1442 1.57413 9.23248 1.61075C9.32058 1.64721 9.40785 1.68587 9.4941 1.72671C9.58052 1.76756 9.66576 1.81043 9.74981 1.8555C9.83404 1.9004 9.91708 1.94749 9.99894 1.9966C10.081 2.04572 10.1615 2.0967 10.2408 2.1497C10.3203 2.20286 10.3983 2.25772 10.4749 2.3146C10.5517 2.37148 10.6268 2.43022 10.7008 2.49082C10.7745 2.55141 10.8468 2.6137 10.9175 2.67784C10.9882 2.74197 11.0574 2.80763 11.1249 2.87515C11.1924 2.94266 11.2581 3.01187 11.3222 3.08259C11.3864 3.15331 11.4487 3.22555 11.5093 3.29931C11.5699 3.37324 11.6286 3.44835 11.6855 3.52515C11.7424 3.60178 11.7972 3.67976 11.8504 3.75909C11.9034 3.83859 11.9544 3.91911 12.0035 4.00114C12.0526 4.083 12.0997 4.16604 12.1446 4.25027C12.1897 4.33433 12.2325 4.41956 12.2734 4.50598C12.3142 4.59223 12.3529 4.6795 12.3893 4.76761C12.426 4.85588 12.4602 4.945 12.4925 5.0348C12.5245 5.12476 12.5546 5.2154 12.5823 5.30672C12.6099 5.39803 12.6354 5.49002 12.6585 5.58269C12.6818 5.67518 12.7028 5.76835 12.7213 5.86203C12.7399 5.95554 12.7563 6.04972 12.7703 6.14408C12.7843 6.23843 12.7959 6.33329 12.8054 6.42832C12.8147 6.52318 12.8218 6.61837 12.8263 6.71374C12.831 6.8091 12.8334 6.90447 12.8334 7Z" fill="#FDD835"/>
<path d="M7 0C3.14132 0 0 3.14132 0 7C0 10.8587 3.14132 14 7 14C10.8587 14 14 10.8587 14 7C14 3.14132 10.8587 0 7 0ZM7 12.6001C3.91117 12.6001 1.39993 10.0888 1.39993 7C1.39993 3.91117 3.91117 1.39993 7 1.39993C10.0888 1.39993 12.6001 3.91117 12.6001 7C12.6001 10.0888 10.0888 12.6001 7 12.6001ZM12.3638 4.17077L12.7692 3.9375C12.9616 4.30208 13.1221 4.68422 13.2475 5.08374L12.7954 5.20341C12.6846 4.84457 12.5388 4.50041 12.3638 4.17077ZM12.1305 3.76837C11.9291 3.45038 11.7016 3.15584 11.4479 2.88173L11.7776 2.55208C12.0605 2.8554 12.3141 3.18504 12.5329 3.53494L12.1305 3.76837ZM11.1183 2.55208C10.8442 2.29839 10.5466 2.07087 10.2316 1.8695L10.4651 1.46424C10.818 1.68586 11.1446 1.93955 11.4479 2.21957L11.1183 2.55208ZM9.82923 1.63624C9.50246 1.4612 9.15543 1.31841 8.79659 1.20464L8.91626 0.752459C9.31578 0.875 9.69792 1.03535 10.0625 1.23081L9.82923 1.63624ZM8.34457 1.08497C7.98589 1.00328 7.6154 0.953824 7.23327 0.93914V0.472439C7.65625 0.487124 8.06742 0.542487 8.46424 0.632957L8.34457 1.08497ZM6.76673 0.93914C6.38747 0.953824 6.01714 1.00328 5.65543 1.08497L5.53576 0.632957C5.93258 0.542487 6.34375 0.487124 6.76673 0.472439V0.93914ZM5.20628 1.20464C4.84744 1.31537 4.50041 1.4612 4.1738 1.63624L3.94037 1.23081C4.30495 1.03839 4.68709 0.877869 5.08661 0.752459L5.20628 1.20464ZM3.76837 1.8695C3.45038 2.07087 3.15584 2.29839 2.88173 2.55208L2.55208 2.22244C2.8554 1.93955 3.18504 1.68586 3.53494 1.46711L3.76837 1.8695ZM2.55208 2.88173C2.29839 3.15584 2.07087 3.45341 1.8695 3.76837L1.46424 3.53494C1.68586 3.182 1.93955 2.8554 2.21957 2.55208L2.55208 2.88173ZM1.63624 4.17077C1.4612 4.49754 1.31841 4.84457 1.20464 5.20341L0.752459 5.08374C0.875 4.68422 1.03535 4.30208 1.23081 3.9375L1.63624 4.17077ZM1.08497 5.65543C1.00328 6.01411 0.953824 6.3846 0.93914 6.76673H0.472439C0.487124 6.34375 0.542487 5.93258 0.632957 5.53576L1.08497 5.65543ZM0.93914 7.23327C0.953824 7.61253 1.00328 7.98286 1.08497 8.34457L0.632957 8.46424C0.542487 8.06742 0.487124 7.65625 0.472439 7.23327H0.93914ZM1.20464 8.79372C1.31537 9.15256 1.4612 9.49959 1.63624 9.8262L1.23081 10.0596C1.03839 9.69505 0.877869 9.31291 0.752459 8.91339L1.20464 8.79372ZM1.8695 10.2316C2.07087 10.5496 2.29839 10.8442 2.55208 11.1183L2.22244 11.4479C1.93955 11.1446 1.68586 10.815 1.46711 10.4651L1.8695 10.2316ZM2.88173 11.4479C3.15584 11.7016 3.45341 11.9291 3.76837 12.1305L3.53494 12.5358C3.182 12.3141 2.8554 12.0605 2.55208 11.7804L2.88173 11.4479ZM4.17077 12.3638C4.49754 12.5388 4.84457 12.6816 5.20341 12.7954L5.08374 13.2475C4.68422 13.125 4.30208 12.9647 3.9375 12.7692L4.17077 12.3638ZM5.65543 12.915C6.01411 12.9967 6.3846 13.0462 6.76673 13.0609V13.5276C6.34375 13.5129 5.93258 13.4575 5.53576 13.367L5.65543 12.915ZM7.23327 13.0609C7.61253 13.0462 7.98286 12.9967 8.34457 12.915L8.46424 13.367C8.06742 13.4575 7.65625 13.5129 7.23327 13.5276V13.0609ZM8.79372 12.7954C9.15256 12.6846 9.49959 12.5388 9.8262 12.3638L10.0596 12.7692C9.69505 12.9616 9.31291 13.1221 8.91339 13.2475L8.79372 12.7954ZM10.2316 12.1305C10.5496 11.9291 10.8442 11.7016 11.1183 11.4479L11.4479 11.7776C11.1446 12.0605 10.815 12.3141 10.4651 12.5329L10.2316 12.1305ZM11.4479 11.1183C11.7016 10.8442 11.9291 10.5466 12.1305 10.2316L12.5358 10.4651C12.3141 10.818 12.0605 11.1446 11.7804 11.4479L11.4479 11.1183ZM12.3638 9.82923C12.5388 9.50246 12.6816 9.15543 12.7954 8.79659L13.2475 8.91626C13.125 9.31578 12.9647 9.69792 12.7692 10.0625L12.3638 9.82923ZM12.915 8.34457C12.9967 7.98589 13.0462 7.6154 13.0609 7.23327H13.5276C13.5129 7.65625 13.4575 8.06742 13.367 8.46424L12.915 8.34457ZM13.0609 6.76673C13.0462 6.38747 12.9967 6.01714 12.915 5.65543L13.367 5.53576C13.4575 5.93258 13.5129 6.34375 13.5276 6.76673H13.0609Z" fill="#FBC02E"/>
<path d="M3.70113 6.01073L4.69107 7.00067L3.70113 7.99062L2.71118 7.00067L3.70113 6.01073Z" fill="url(#paint0_linear_263_299)"/>
<path d="M6.99995 6.00989L7.9899 7L6.99995 7.98978L6.01001 6.99983L6.99995 6.00989Z" fill="url(#paint1_linear_263_299)"/>
<path d="M10.2992 6.00922L11.289 6.99916L10.299 7.98911L9.30908 6.99916L10.2992 6.00922Z" fill="url(#paint2_linear_263_299)"/>
<path d="M7.00011 2.70956L9.63963 5.34925L8.65086 6.34088L7.00011 4.68996L5.34936 6.34088L4.3606 5.34925L7.00011 2.70956Z" fill="url(#paint3_linear_263_299)"/>
<path d="M7.00011 11.2904L4.3606 8.65075L5.34936 7.65912L7.00011 9.31004L8.65086 7.65912L9.63963 8.65075L7.00011 11.2904Z" fill="url(#paint4_linear_263_299)"/>
<defs>
<linearGradient id="paint0_linear_263_299" x1="3.70113" y1="6.01073" x2="3.70113" y2="7.99062" gradientUnits="userSpaceOnUse">
<stop stop-color="#EB7F00"/>
<stop offset="1" stop-color="#FEA823"/>
</linearGradient>
<linearGradient id="paint1_linear_263_299" x1="6.99995" y1="6.00989" x2="6.99995" y2="7.98978" gradientUnits="userSpaceOnUse">
<stop stop-color="#EB7F00"/>
<stop offset="1" stop-color="#FEA823"/>
</linearGradient>
<linearGradient id="paint2_linear_263_299" x1="10.299" y1="6.00922" x2="10.299" y2="7.98911" gradientUnits="userSpaceOnUse">
<stop stop-color="#EB7F00"/>
<stop offset="1" stop-color="#FEA823"/>
</linearGradient>
<linearGradient id="paint3_linear_263_299" x1="7.00011" y1="2.70956" x2="7.00011" y2="6.34088" gradientUnits="userSpaceOnUse">
<stop stop-color="#EB7F00"/>
<stop offset="1" stop-color="#FEA823"/>
</linearGradient>
<linearGradient id="paint4_linear_263_299" x1="7.00011" y1="7.65912" x2="7.00011" y2="11.2904" gradientUnits="userSpaceOnUse">
<stop stop-color="#EB7F00"/>
<stop offset="1" stop-color="#FEA823"/>
</linearGradient>
</defs>
</svg>
