<svg width="278" height="352" viewBox="0 0 278 352" fill="none" xmlns="http://www.w3.org/2000/svg">
<path fill-rule="evenodd" clip-rule="evenodd" d="M131.939 267.157V275.5H148.53V267.176C153.824 266.597 158.544 265.432 162.691 263.679C168.918 261.028 173.675 257.312 176.963 252.533C180.286 247.718 181.965 242.032 182 235.473C181.965 231.007 181.143 227.048 179.534 223.594C177.96 220.14 175.739 217.14 172.87 214.593C170.002 212.046 166.609 209.901 162.691 208.157C158.774 206.412 154.471 205.017 149.784 203.97L148.53 203.671V177.504C150.354 178.079 151.962 178.877 153.352 179.898C156.535 182.236 158.336 185.515 158.756 189.736H180.531C180.426 183.352 178.712 177.735 175.389 172.886C172.066 168.037 167.414 164.251 161.432 161.53C157.561 159.759 153.261 158.564 148.53 157.946V149.5H131.939V158.044C127.492 158.686 123.367 159.848 119.562 161.53C113.405 164.251 108.561 168.037 105.028 172.886C101.53 177.735 99.7984 183.404 99.8333 189.893C99.7984 197.813 102.404 204.11 107.651 208.785C112.898 213.459 120.051 216.896 129.111 219.094L131.939 219.802V247.62C131.092 247.395 130.272 247.131 129.478 246.829C126.4 245.608 123.934 243.811 122.08 241.439C120.261 239.031 119.229 236.031 118.985 232.438H97C97.1749 240.148 99.0463 246.619 102.614 251.852C106.217 257.051 111.219 260.975 117.62 263.627C121.899 265.389 126.671 266.566 131.939 267.157ZM148.53 247.463C149.051 247.303 149.556 247.126 150.046 246.933C152.915 245.817 155.136 244.264 156.71 242.276C158.284 240.287 159.071 238.002 159.071 235.421C159.071 233.013 158.354 230.99 156.92 229.35C155.521 227.711 153.457 226.315 150.728 225.164C150.036 224.868 149.303 224.579 148.53 224.297V247.463ZM131.939 199.152V177.61C131.618 177.72 131.305 177.837 131 177.962C128.447 178.974 126.488 180.387 125.123 182.201C123.794 184.015 123.13 186.073 123.13 188.376C123.06 190.295 123.462 191.969 124.336 193.399C125.246 194.83 126.488 196.068 128.062 197.115C129.221 197.86 130.514 198.539 131.939 199.152Z" fill="url(#paint0_linear_361_192)"/>
<path fill-rule="evenodd" clip-rule="evenodd" d="M87.5 48.5C87.5 21.7142 109.214 0 136 0C162.786 0 184.5 21.7142 184.5 48.5V81.6178C238.922 100.462 278 152.168 278 213C278 289.768 215.768 352 139 352C62.2324 352 0 289.768 0 213C0 154.427 36.2286 104.316 87.5 83.8526V48.5ZM169.5 48.5V77.3567C159.685 75.1593 149.478 74 139 74C126.369 74 114.132 75.6847 102.5 78.8418V48.5C102.5 29.9985 117.498 15 136 15C154.502 15 169.5 29.9985 169.5 48.5ZM13.9 213C13.9 282.091 69.9092 338.1 139 338.1C208.091 338.1 264.1 282.091 264.1 213C264.1 143.909 208.091 87.9 139 87.9C69.9092 87.9 13.9 143.909 13.9 213Z" fill="url(#paint1_linear_361_192)"/>
<defs>
<linearGradient id="paint0_linear_361_192" x1="-1.94397e-06" y1="-2.93334" x2="316.524" y2="36.0181" gradientUnits="userSpaceOnUse">
<stop stop-color="#FEA823"/>
<stop offset="1" stop-color="#EB7F00"/>
</linearGradient>
<linearGradient id="paint1_linear_361_192" x1="-1.94397e-06" y1="-2.93334" x2="316.524" y2="36.0181" gradientUnits="userSpaceOnUse">
<stop stop-color="#FEA823"/>
<stop offset="1" stop-color="#EB7F00"/>
</linearGradient>
</defs>
</svg>
